<svg xmlns="http://www.w3.org/2000/svg" xmlns:xlink="http://www.w3.org/1999/xlink" id="Layer_1" x="0" y="0" version="1.1" viewBox="0 0 133.37 133.67" style="enable-background:new 0 0 133.37 133.67" xml:space="preserve"><style type="text/css">.st0{fill:#53b3dd}.st1{fill:#fff}</style><switch><g><polygon points="94.31 .6 39.42 .6 .61 39.41 .61 94.3 39.42 133.11 94.31 133.11 133.12 94.3 133.12 39.41" class="st0"/><path d="M66.86,14.69l3.07,16.09l14.5-7.63L73.76,35.59l15.01,6.57l-16.37-0.59l4.22,15.83l-9.75-13.17L57.11,57.4 l4.22-15.83l-16.37,0.59l15.01-6.57L49.3,23.15l14.5,7.63L66.86,14.69z M66.86,34c-1.66,0-3.01,1.35-3.01,3.01 c0,1.66,1.35,3.01,3.01,3.01c1.66,0,3.01-1.35,3.01-3.01C69.87,35.35,68.52,34,66.86,34z M85.36,76.65v23.97 c0,10.2-8.3,18.5-18.5,18.5c-10.2,0-18.5-8.3-18.5-18.5V76.65h4.92V63.18h27.16v13.47H85.36z M56.28,76.65h21.16V66.18h-8.9v4.68 h-3.36v-4.68h-8.9V76.65z M80.36,81.65h-27v18.97c0,7.44,6.06,13.5,13.5,13.5s13.5-6.06,13.5-13.5V81.65z M76.88,88.4H56.84v3 h20.03V88.4z M76.88,96.47H56.84v3h20.03V96.47z" class="st1"/></g></switch></svg>