<svg xmlns="http://www.w3.org/2000/svg" xmlns:xlink="http://www.w3.org/1999/xlink" id="Layer_1" x="0" y="0" version="1.1" viewBox="0 0 133.37 133.67" style="enable-background:new 0 0 133.37 133.67" xml:space="preserve"><style type="text/css">.st0{fill:#53b3dd}.st1{fill:#fff}</style><switch><g><g><polygon points="95 .67 40.11 .67 1.3 39.48 1.3 94.37 40.11 133.18 95 133.18 133.81 94.37 133.81 39.48" class="st0"/><g><g><polygon points="79.93 42.09 74.52 42.09 84.58 28.23 94.66 42.08 89.25 42.08 84.59 35.68" class="st1"/></g><g><polygon points="79.93 28.46 74.52 28.47 84.58 14.6 94.66 28.45 89.25 28.46 84.59 22.05" class="st1"/></g><path d="M106.47,59.26c-0.99-1.3-2.7-2.02-4.83-2.02H44.91c-2.85,0-5.54,2.09-6.43,5.03L34.14,78.8l0.09-22.9 c0-1.95,1.59-3.54,3.54-3.54h56.91v-1.32c0-1.95-1.59-3.54-3.54-3.54H72.55l-1.94-3.32c-0.33-0.57-0.94-0.92-1.6-0.92H43.23 c-0.66,0-1.27,0.35-1.6,0.92l-1.94,3.32h-6.22c-1.95,0-3.54,1.59-3.54,3.54v42.13c0,1.95,1.59,3.54,3.54,3.54h2.35 c0.22,0.03,0.44,0.04,0.67,0.04h56.26c4.06,0,5.43-3.64,5.88-4.84l8.47-28.59C107.53,61.82,107.31,60.37,106.47,59.26z M103.26,62.22l-8.4,28.36c-0.84,2.18-1.58,2.18-2.12,2.18H36.49c-0.78,0-1.43-0.58-1.53-1.34l7.38-28.06 c0.35-1.17,1.51-2.12,2.58-2.12h56.73c0.96,0,1.51,0.26,1.64,0.43C103.35,61.78,103.32,62.03,103.26,62.22z" class="st1"/></g></g><path d="M58.19,76.67l4.04,3.12l0,3.62l-8.74-6.74l8.75-6.73l0,3.62L58.19,76.67z M80.2,76.67l-4.04,3.12l0,3.62 l8.74-6.74l-8.75-6.73l0,3.62L80.2,76.67z M73.69,67.48l-3.24-1.01l-6.28,20.17l3.24,1.01L73.69,67.48z" class="st1"/></g></switch></svg>