<svg xmlns="http://www.w3.org/2000/svg" xmlns:xlink="http://www.w3.org/1999/xlink" id="Layer_1" x="0" y="0" version="1.1" viewBox="0 0 133.37 133.67" style="enable-background:new 0 0 133.37 133.67" xml:space="preserve"><style type="text/css">.st0{fill:#fff}.st1{fill:#004c94}</style><switch><g><polygon points="60.08 64.83 60.08 60.02 72.38 68.95 60.09 77.9 60.09 73.09 65.77 68.95" class="st0"/><polygon points="94.17 .6 39.28 .6 .47 39.41 .47 94.3 39.28 133.11 94.17 133.11 132.98 94.3 132.98 39.41" class="st1"/><path d="M64.05,83.77c-0.1,0-0.2,0-0.31,0C54.5,83.61,47.26,76.2,47.28,66.9c0.01-4.42,1.77-8.6,4.95-11.78 c3.19-3.17,7.38-4.92,11.81-4.92c0.02,0,0.03,0,0.05,0c4.47,0.01,8.69,1.79,11.88,5c3.17,3.19,4.9,7.39,4.88,11.82 c-0.02,4.57-1.81,8.82-5.03,11.98C72.66,82.08,68.49,83.77,64.05,83.77z M64.04,53.2c-3.63,0-7.07,1.44-9.69,4.05 c-2.62,2.61-4.07,6.04-4.07,9.65c-0.01,7.64,5.93,13.73,13.52,13.86c3.76,0.08,7.27-1.32,9.91-3.91c2.65-2.59,4.12-6.09,4.13-9.85 c0.02-3.63-1.41-7.07-4.01-9.69c-2.62-2.64-6.08-4.1-9.76-4.11l0,0C64.07,53.2,64.05,53.2,64.04,53.2z M65.8,67.42l-5.68,4.14 l0,4.8l12.29-8.95l-12.3-8.93l0,4.8L65.8,67.42z M95.24,82.24c0.32-0.65,0.61-1.28,0.88-1.9h-5.53c-0.12,0.23-0.23,0.46-0.36,0.7 c-0.54,1.01-0.47,2.17,0.2,3.09c0.59,0.81,1.17,1.63,1.75,2.45l2.14,3.01l-7.34,7.34c-1.8-1.28-3.61-2.56-5.41-3.85 c-0.97-0.69-2.13-0.78-3.18-0.22c-2.03,1.07-3.88,1.84-5.67,2.36c-1.22,0.36-2.04,1.29-2.23,2.57c-0.1,0.7-0.22,1.39-0.34,2.09 l-0.7,4.22H59l-0.37-2.18c-0.23-1.38-0.47-2.75-0.69-4.13c-0.2-1.18-1-2.07-2.15-2.38c-1.91-0.51-3.84-1.29-5.91-2.39 c-1.04-0.55-2.18-0.48-3.13,0.21c-1.82,1.3-3.65,2.61-5.48,3.91l-7.37-7.27c1.31-1.85,2.62-3.69,3.94-5.53 c0.69-0.97,0.76-2.12,0.2-3.17c-1.12-2.08-1.91-3.97-2.41-5.78c-0.29-1.04-1.21-1.87-2.28-2.06c-1.36-0.24-2.73-0.46-4.09-0.69 l-1.58-0.26c-0.33-0.05-0.66-0.11-0.98-0.17V61.83l6.56-0.97c1.19-0.17,2.09-0.97,2.4-2.12c0.54-1.97,1.32-3.9,2.38-5.89 c0.57-1.07,0.49-2.25-0.23-3.24c-1.27-1.74-2.54-3.48-3.8-5.22l-0.05-0.06l7.45-7.33l0.83,0.58c1.52,1.07,3.03,2.14,4.55,3.2 c0.68,0.48,1.88,0.83,3,0.23c2.32-1.22,4.15-1.98,5.93-2.46c1.04-0.28,1.86-1.18,2.04-2.23c0.31-1.8,0.6-3.59,0.9-5.39l0.22-1.3 h10.41c0.36,2.14,0.73,4.29,1.08,6.44c0.19,1.15,0.94,1.99,2.05,2.32c1.93,0.57,3.87,1.38,5.77,2.39c1.08,0.58,2.23,0.5,3.25-0.2 l3.08-2.13c0.78-0.54,1.56-1.08,2.35-1.62c2.45,2.49,4.9,4.98,7.35,7.47l-0.19,0.26c-1.14,1.58-2.29,3.16-3.46,4.73 c-1.39,1.87-0.61,3.45-0.13,4.12l0.06,0.12c0.01,0.01,0.01,0.03,0.02,0.04h5.52c-0.29-0.68-0.59-1.35-0.92-2.01 c1-1.35,1.98-2.71,2.97-4.07l2.97-4.08l-2.07-1.47c-0.06-0.04-0.12-0.08-0.21-0.14c-3.19-3.24-6.39-6.48-9.57-9.73 c-1.04-1.07-2.51-1.2-3.73-0.35c-1.26,0.88-2.52,1.75-3.78,2.62l-2.17,1.5c-1.46-0.72-2.93-1.34-4.41-1.84 c-0.36-2.13-0.72-4.27-1.08-6.4l-0.11-0.66c-0.03-0.18-0.08-0.36-0.14-0.54l-0.55-1.76H54.63l-0.91,5.48 c-0.22,1.34-0.44,2.68-0.67,4.02c-1.38,0.46-2.81,1.06-4.4,1.85c-1.18-0.83-2.35-1.66-3.53-2.49l-4.25-2.98L27.38,43.77l2.56,3.56 c1.03,1.42,2.07,2.85,3.11,4.27c-0.74,1.5-1.35,3.01-1.84,4.51l-9.53,1.4V76.4l3,0.52c0.72,0.12,1.44,0.25,2.16,0.37l1.58,0.26 c0.93,0.15,1.85,0.31,2.78,0.46c0.47,1.42,1.09,2.87,1.85,4.39c-1.17,1.64-2.34,3.29-3.51,4.93l-2.17,3.1l13.34,13.15l3.36-2.34 c1.52-1.08,3.05-2.17,4.57-3.26c1.56,0.77,3.06,1.38,4.56,1.86c0.16,0.96,0.32,1.93,0.49,2.89l1.07,6.35h18.93l1.39-8.39 c0.06-0.35,0.12-0.7,0.18-1.05c1.42-0.48,2.87-1.08,4.38-1.83c1.51,1.08,3.03,2.16,4.54,3.23l3.36,2.38l13.3-13.32l-4.58-6.45 C95.92,83.2,95.58,82.72,95.24,82.24z M109.07,67.43l7.01-5.11l0-5.93l-15.17,11.04l15.19,11.02l0-5.93L109.07,67.43z M94.8,67.43 l7.01-5.11l0-5.93L86.64,67.44l15.19,11.02l0-5.93L94.8,67.43z" class="st0"/></g></switch></svg>