<svg xmlns="http://www.w3.org/2000/svg" xmlns:xlink="http://www.w3.org/1999/xlink" id="Layer_1" x="0" y="0" version="1.1" viewBox="0 0 107.62 107.62" style="enable-background:new 0 0 107.62 107.62" xml:space="preserve"><style type="text/css">.st0{fill:#fff}</style><switch><g><g id="XUXQrP_00000118380405233196064980000008138603713370775474_"><g><path d="M29.28,81.05c0-4.46-0.06-8.92,0.02-13.38c0.11-6.48,4.78-11.13,10.99-11.04c6,0.08,10.64,4.82,10.69,11.12 c0.07,8.92,0.07,17.84,0,26.76c-0.05,6.47-4.72,11.16-10.91,11.14c-6.22-0.02-10.71-4.65-10.78-11.22 C29.24,89.97,29.28,85.51,29.28,81.05z" class="st0"/><path d="M26.47,50.99c-4.56,0-9.11,0.05-13.67-0.01C6.62,50.89,2.07,46.41,1.97,40.43 c-0.1-6.09,4.44-10.98,10.67-11.08c9.21-0.14,18.42-0.14,27.62,0.01c6.21,0.1,10.85,5.07,10.73,11.06 c-0.13,6.1-4.74,10.51-11.14,10.58C35.39,51.03,30.93,51,26.47,50.99z" class="st0"/><path d="M80.97,78.34c-4.46,0-8.92,0.06-13.38-0.01c-6.41-0.1-10.91-4.54-10.96-10.71 c-0.05-6.26,4.53-10.91,11.03-10.97c9.01-0.08,18.03-0.09,27.05,0c6.17,0.06,10.94,4.93,10.93,10.89 c-0.01,5.99-4.72,10.67-11,10.78C90.09,78.4,85.53,78.33,80.97,78.34z" class="st0"/><path d="M78.32,26.7c0,4.36,0.06,8.72-0.01,13.09c-0.1,6.69-4.72,11.3-11.11,11.21 c-6.21-0.09-10.54-4.71-10.56-11.38c-0.03-8.82-0.04-17.64,0-26.46c0.03-6.32,4.55-11.02,10.59-11.16 c6.02-0.14,10.94,4.7,11.07,11.04C78.4,17.58,78.32,22.14,78.32,26.7z" class="st0"/><path d="M50.99,24.01c-4.88-0.26-9.68,0.05-14.21-0.91c-5.43-1.15-8.44-7.02-7.31-12.5 c1.05-5.09,6.12-8.96,11.25-8.6c5.56,0.4,10,4.79,10.24,10.38C51.11,15.94,50.99,19.52,50.99,24.01z" class="st0"/><path d="M84.12,50.8c0-4.41-0.36-8.69,0.09-12.89c0.55-5.14,5.84-8.91,11.16-8.58c5.54,0.34,9.95,4.82,10.26,10.41 c0.29,5.19-3.71,10.47-8.79,11.05c-3.45,0.4-6.98,0.17-10.47,0.19C85.62,50.99,84.87,50.87,84.12,50.8z" class="st0"/><path d="M23.53,56.65c0,4.42,0.33,8.59-0.08,12.68c-0.58,5.71-5.93,9.48-11.93,8.94c-5.45-0.49-9.6-5.24-9.56-10.91 c0.05-5.67,4.42-10.39,10.15-10.68C15.78,56.5,19.47,56.65,23.53,56.65z" class="st0"/><path d="M56.63,84.11c4.45,0,8.63-0.37,12.72,0.09c5.57,0.62,9.53,6.21,8.9,11.77c-0.65,5.68-5.42,9.81-11.18,9.67 c-5.75-0.14-10.26-4.57-10.42-10.38C56.55,91.61,56.63,87.95,56.63,84.11z" class="st0"/></g></g></g></switch></svg>