<svg xmlns="http://www.w3.org/2000/svg" xmlns:xlink="http://www.w3.org/1999/xlink" id="Layer_1" x="0" y="0" version="1.1" viewBox="0 0 116.77 96.58" style="enable-background:new 0 0 116.77 96.58" xml:space="preserve"><style type="text/css">.st1{fill:#fff}</style><switch><g><g id="d05vBF_00000093878492489725464630000009564156224187586483_"><g><path d="M41.87,94.94c-1.65,0-3.3,0-4.95,0c-0.81-0.12-1.61-0.28-2.43-0.34c-2.66-0.2-5.35-0.17-7.97-0.58 c-7.96-1.26-15.4-4.07-22.48-7.89c-0.8-0.43-1.58-0.93-2.36-1.4c0.04-0.15,0.08-0.3,0.12-0.45c5.97,0.53,11.85,0.3,17.62-1.48 c5.76-1.78,11.12-4.24,16.14-8.2C24.6,73.1,14.84,65.65,14.15,58.55c3.11-0.14,6.22-0.28,9.34-0.42 C10.36,53.85,5.14,42.48,5.95,35.02c3.08,0.84,6.19,1.68,9.29,2.52c0.12-0.23,0.25-0.46,0.37-0.7 c-4.87-3.49-8.03-8.15-9.22-13.92C5.21,17.19,5.84,11.59,9.07,6.18c12.69,14.75,28.59,23.04,48.22,24.4 c-0.2-2.01-0.47-3.64-0.51-5.27C56.56,16.15,62.44,7.3,71.22,3.46c8.22-3.6,18.24-1.78,24.9,4.58c0.89,0.85,1.77,1.17,2.9,0.76 c2.97-1.07,5.96-2.11,8.9-3.24c1.32-0.51,2.57-1.22,4.11-1.96c-0.11,0.64-0.1,0.97-0.22,1.23c-0.54,1.14-0.95,2.41-1.72,3.38 c-2.18,2.74-4.51,5.35-7.05,8.34c4.03-1.13,7.92-2.23,12.05-3.39c-0.46,0.68-0.74,1.24-1.16,1.67 c-2.86,2.95-5.68,5.94-8.65,8.77c-1,0.95-1.42,1.82-1.52,3.21c-0.38,5.23-0.52,10.55-1.61,15.65 c-2.13,9.89-6.47,18.87-12.66,26.95c-9.22,12.02-21.11,19.94-35.86,23.44C49.76,93.77,45.79,94.26,41.87,94.94z" class="st1"/></g></g></g></switch></svg>