<svg xmlns="http://www.w3.org/2000/svg" xmlns:xlink="http://www.w3.org/1999/xlink" id="Layer_1" x="0" y="0" version="1.1" viewBox="0 0 167.97 96.99" style="enable-background:new 0 0 167.97 96.99" xml:space="preserve"><style type="text/css">.st0{fill:#0c4e93}</style><switch><g><path d="M61.68,46.11l18.7,14.37L61.7,74.86l-0.01-7.73l8.64-6.66l-8.65-6.64L61.68,46.11z M41.63,53.84l8.65,6.64 l-8.64,6.66l0.01,7.73l18.68-14.39l-18.7-14.37L41.63,53.84z M166.07,49.77c0,25.02-20.35,45.37-45.37,45.37l-96.86,0.35 c-12.89,0-23.36-10.47-23.36-23.35c0-12.78,10.32-23.19,23.06-23.35c0.85-17.03,14.98-30.62,32.22-30.62 c5.32,0,10.47,1.29,15.1,3.75c9.08-11.13,27.77-20,43.14-20c15.69,0,29.02,5.02,38.54,14.53 C161.26,25.15,166.07,36.98,166.07,49.77z M158.07,49.77c0-19.19-13.79-39.85-44.08-39.85c-14.17,0-32.24,9.09-38.66,19.45 l-2.23,3.6l-3.47-2.43c-4.08-2.86-8.88-4.37-13.88-4.37c-13.38,0-24.26,10.88-24.26,24.26c0,0.8,0.06,1.51,0.15,2.4l0.56,5.43 l-5.47-1.13c-1.19-0.24-2.06-0.34-2.9-0.34c-8.46,0-15.35,6.89-15.35,15.35s6.89,15.35,15.35,15.35l78.7-0.28 c-6.73-4.46-11.72-11.04-13.91-18.47c-4.27-14.53,4.07-29.82,18.59-34.09c11.94-3.51,24.51,3.34,28.02,15.28 c2.9,9.87-2.76,20.26-12.63,23.16c-8.21,2.41-16.86-2.3-19.27-10.51c-2.03-6.89,1.93-14.14,8.81-16.16 c1.59-0.47,3.26,0.44,3.72,2.03c0.47,1.59-0.44,3.26-2.03,3.72c-3.71,1.09-5.84,5-4.75,8.71c1.48,5.04,6.79,7.93,11.82,6.45 c6.69-1.97,10.54-9.02,8.57-15.71c-1.25-4.25-4.08-7.75-7.96-9.87c-3.88-2.12-8.36-2.6-12.61-1.35 c-5.5,1.62-10.04,5.28-12.78,10.31c-2.74,5.03-3.36,10.83-1.75,16.33c2.04,6.93,7.11,12.99,13.9,16.61 c3.81,2.03,7.97,3.21,12.13,3.48l0.28,0C141.31,87.14,158.07,70.37,158.07,49.77z" class="st0"/></g></switch></svg>