<svg xmlns="http://www.w3.org/2000/svg" xmlns:xlink="http://www.w3.org/1999/xlink" id="Layer_1" x="0" y="0" version="1.1" viewBox="0 0 136.13 136.13" style="enable-background:new 0 0 136.13 136.13" xml:space="preserve"><style type="text/css">.st0{fill:#0c4e93}</style><switch><g><path d="M1.15,60.38l-0.01-8.54l20.66,15.88L1.17,83.62l-0.01-8.54l9.55-7.35L1.15,60.38z M135.25,60.38l0.01-8.54 l-20.66,15.88l20.64,15.91l0.01-8.54l-9.55-7.35L135.25,60.38z M68.19,123.67l-7.35-9.55l-8.54,0.01l15.91,20.64l15.88-20.66 l-8.54,0.01L68.19,123.67z M75.53,21.34l8.54,0.01L68.2,0.68L52.29,21.32l8.54,0.01l7.35-9.55L75.53,21.34z M102.34,33.59H34.06 v68.28h68.28V33.59z M42.06,41.59h52.28v52.28H42.06V41.59z M84.87,51.06H51.53V84.4h33.34V51.06z M57.53,57.06h21.34V78.4H57.53 V57.06z" class="st0"/></g></switch></svg>