<svg xmlns="http://www.w3.org/2000/svg" xmlns:xlink="http://www.w3.org/1999/xlink" id="Layer_1" x="0" y="0" version="1.1" viewBox="0 0 133.37 133.67" style="enable-background:new 0 0 133.37 133.67" xml:space="preserve"><style type="text/css">.st0{fill:#004c94}.st1{fill:#fff}</style><switch><g><polygon points="94.13 .8 39.24 .8 .43 39.61 .43 94.5 39.24 133.31 94.13 133.31 132.94 94.5 132.94 39.61" class="st0"/><g><g><g><polygon points="19.05 61.62 19.04 55.55 33.72 66.83 19.06 78.13 19.05 72.06 25.84 66.83" class="st1"/><polygon points="114.32 61.62 114.33 55.55 99.65 66.83 114.31 78.13 114.32 72.06 107.54 66.83" class="st1"/></g><g><polygon points="71.9 99.79 77.97 99.79 66.69 114.47 55.39 99.81 61.45 99.8 66.68 106.58" class="st1"/><polygon points="71.9 33.88 77.97 33.88 66.69 19.2 55.39 33.87 61.45 33.87 66.68 27.09" class="st1"/></g></g><path d="M90.6,90.75H42.77V42.92H90.6V90.75z M47.77,85.75H85.6V47.92H47.77V85.75z" class="st1"/><path d="M77.03,77.18H56.34V56.49h20.69V77.18z M59.34,74.18h14.69V59.49H59.34V74.18z" class="st1"/></g></g></switch></svg>